<svg width="44" height="9" viewBox="0 0 44 9" fill="none" xmlns="http://www.w3.org/2000/svg">
<path d="M5.17 7.14C4.69 7.8 4.01667 8.13 3.15 8.13C2.29 8.13 1.61333 7.8 1.12 7.14C0.64 6.48 0.4 5.6 0.4 4.5C0.4 3.4 0.64 2.52 1.12 1.86C1.61333 1.2 2.29 0.869999 3.15 0.869999C4.01667 0.869999 4.69 1.2 5.17 1.86C5.65667 2.51333 5.9 3.39333 5.9 4.5C5.9 5.60667 5.65667 6.48667 5.17 7.14ZM3.15 7.01C3.67 7.01 4.06667 6.79333 4.34 6.36C4.61333 5.92667 4.75 5.30667 4.75 4.5C4.75 3.69333 4.61333 3.07333 4.34 2.64C4.06667 2.20667 3.67 1.99 3.15 1.99C2.63667 1.99 2.24 2.20667 1.96 2.64C1.68667 3.07333 1.55 3.69333 1.55 4.5C1.55 5.30667 1.68667 5.92667 1.96 6.36C2.24 6.79333 2.63667 7.01 3.15 7.01ZM11.9049 1.98L10.4849 3.86C11.0049 3.98 11.4183 4.22 11.7249 4.58C12.0383 4.93333 12.1949 5.36667 12.1949 5.88C12.1949 6.58 11.9583 7.13 11.4849 7.53C11.0183 7.93 10.4383 8.13 9.74492 8.13C9.19826 8.13 8.71492 8.00667 8.29492 7.76C7.87492 7.50667 7.57492 7.14667 7.39492 6.68L8.37492 6.11C8.58159 6.71 9.03826 7.01 9.74492 7.01C10.1449 7.01 10.4616 6.91 10.6949 6.71C10.9283 6.50333 11.0449 6.22667 11.0449 5.88C11.0449 5.53333 10.9283 5.26 10.6949 5.06C10.4616 4.86 10.1449 4.76 9.74492 4.76H9.48492L9.02492 4.07L10.5349 2.08H7.60492V1H11.9049V1.98ZM14.0777 3.62C14.0777 3.40667 14.1477 3.23 14.2877 3.09C14.4343 2.94333 14.6143 2.87 14.8277 2.87C15.0343 2.85667 15.211 2.93 15.3577 3.09C15.5043 3.25 15.5777 3.42667 15.5777 3.62C15.5777 3.81333 15.5043 3.99 15.3577 4.15C15.1977 4.29667 15.021 4.37 14.8277 4.37C14.6343 4.37 14.4577 4.29667 14.2977 4.15C14.1377 4.00333 14.0643 3.82667 14.0777 3.62ZM14.8277 6.62C15.0343 6.62 15.211 6.69333 15.3577 6.84C15.5043 6.98667 15.5777 7.16333 15.5777 7.37C15.5777 7.57667 15.5043 7.75333 15.3577 7.9C15.211 8.04667 15.0343 8.12 14.8277 8.12C14.621 8.12 14.4443 8.04667 14.2977 7.9C14.151 7.75333 14.0777 7.57667 14.0777 7.37C14.0777 7.16333 14.1477 6.98667 14.2877 6.84C14.4343 6.69333 14.6143 6.62 14.8277 6.62ZM22.1165 8H17.5065V7.1L19.9465 4.61C20.5398 4.01667 20.8365 3.50333 20.8365 3.07C20.8365 2.73667 20.7365 2.47333 20.5365 2.28C20.3365 2.08667 20.0765 1.99 19.7565 1.99C19.1698 1.99 18.7365 2.28 18.4565 2.86L17.4865 2.29C17.6998 1.83 18.0065 1.48 18.4065 1.24C18.8065 0.993333 19.2532 0.869999 19.7465 0.869999C20.3665 0.869999 20.8932 1.06333 21.3265 1.45C21.7665 1.84333 21.9865 2.37 21.9865 3.03C21.9865 3.73667 21.5898 4.49667 20.7965 5.31L19.2165 6.89H22.1165V8ZM25.3618 3.64H26.2418C26.9085 3.64 27.4718 3.84 27.9318 4.24C28.3918 4.63333 28.6218 5.18 28.6218 5.88C28.6218 6.58 28.3851 7.13 27.9118 7.53C27.4451 7.93 26.8651 8.13 26.1718 8.13C25.6051 8.13 25.1118 8 24.6918 7.74C24.2718 7.48 23.9718 7.11 23.7918 6.63L24.7818 6.06C24.9751 6.69333 25.4385 7.01 26.1718 7.01C26.5651 7.01 26.8785 6.91 27.1118 6.71C27.3518 6.50333 27.4718 6.22667 27.4718 5.88C27.4718 5.54 27.3551 5.27 27.1218 5.07C26.8885 4.86333 26.5785 4.76 26.1918 4.76H24.1518L24.4218 1H28.3218V2.08H25.4818L25.3618 3.64ZM30.3757 3.62C30.3757 3.40667 30.4457 3.23 30.5857 3.09C30.7324 2.94333 30.9124 2.87 31.1257 2.87C31.3324 2.85667 31.509 2.93 31.6557 3.09C31.8024 3.25 31.8757 3.42667 31.8757 3.62C31.8757 3.81333 31.8024 3.99 31.6557 4.15C31.4957 4.29667 31.319 4.37 31.1257 4.37C30.9324 4.37 30.7557 4.29667 30.5957 4.15C30.4357 4.00333 30.3624 3.82667 30.3757 3.62ZM31.1257 6.62C31.3324 6.62 31.509 6.69333 31.6557 6.84C31.8024 6.98667 31.8757 7.16333 31.8757 7.37C31.8757 7.57667 31.8024 7.75333 31.6557 7.9C31.509 8.04667 31.3324 8.12 31.1257 8.12C30.919 8.12 30.7424 8.04667 30.5957 7.9C30.449 7.75333 30.3757 7.57667 30.3757 7.37C30.3757 7.16333 30.4457 6.98667 30.5857 6.84C30.7324 6.69333 30.9124 6.62 31.1257 6.62ZM33.6245 1.65L35.4645 1H36.4645V8H35.3145V2.23L33.9045 2.63L33.6245 1.65ZM43.1452 5.67H43.9452V6.74H43.1452V8H41.9852V6.74H38.5452V5.67L40.9552 1H42.2052L39.7952 5.67H41.9852V3.85H43.1452V5.67Z" fill="#DFD9FF"/>
</svg>
