<svg width="39" height="9" viewBox="0 0 39 9" fill="none" xmlns="http://www.w3.org/2000/svg">
<path d="M4.428 7H0.279V6.19L2.475 3.949C3.009 3.415 3.276 2.953 3.276 2.563C3.276 2.263 3.186 2.026 3.006 1.852C2.826 1.678 2.592 1.591 2.304 1.591C1.776 1.591 1.386 1.852 1.134 2.374L0.261 1.861C0.453 1.447 0.729 1.132 1.089 0.915999C1.449 0.693999 1.851 0.582999 2.295 0.582999C2.853 0.582999 3.327 0.757 3.717 1.105C4.113 1.459 4.311 1.933 4.311 2.527C4.311 3.163 3.954 3.847 3.24 4.579L1.818 6.001H4.428V7ZM11.1447 3.139V0.7H12.1167V7H11.1447V6.352C10.7787 6.862 10.2537 7.117 9.56967 7.117C8.95167 7.117 8.42367 6.889 7.98567 6.433C7.54767 5.977 7.32867 5.416 7.32867 4.75C7.32867 4.084 7.54767 3.523 7.98567 3.067C8.42367 2.611 8.95167 2.383 9.56967 2.383C10.2537 2.383 10.7787 2.635 11.1447 3.139ZM8.70567 5.785C8.97567 6.055 9.31467 6.19 9.72267 6.19C10.1307 6.19 10.4697 6.055 10.7397 5.785C11.0097 5.509 11.1447 5.164 11.1447 4.75C11.1447 4.336 11.0097 3.994 10.7397 3.724C10.4697 3.448 10.1307 3.31 9.72267 3.31C9.31467 3.31 8.97567 3.448 8.70567 3.724C8.43567 3.994 8.30067 4.336 8.30067 4.75C8.30067 5.158 8.43567 5.503 8.70567 5.785ZM16.8136 3.139V2.5H17.7856V7H16.8136V6.352C16.4476 6.862 15.9226 7.117 15.2386 7.117C14.6206 7.117 14.0926 6.889 13.6546 6.433C13.2166 5.977 12.9976 5.416 12.9976 4.75C12.9976 4.084 13.2166 3.523 13.6546 3.067C14.0926 2.611 14.6206 2.383 15.2386 2.383C15.9226 2.383 16.4476 2.635 16.8136 3.139ZM14.3746 5.785C14.6446 6.055 14.9836 6.19 15.3916 6.19C15.7996 6.19 16.1386 6.055 16.4086 5.785C16.6786 5.509 16.8136 5.164 16.8136 4.75C16.8136 4.336 16.6786 3.994 16.4086 3.724C16.1386 3.448 15.7996 3.31 15.3916 3.31C14.9836 3.31 14.6446 3.448 14.3746 3.724C14.1046 3.994 13.9696 4.336 13.9696 4.75C13.9696 5.158 14.1046 5.503 14.3746 5.785ZM20.7996 5.767L21.9516 2.5H22.9866L21.2586 7.144C20.8266 8.308 20.0946 8.86 19.0626 8.8V7.891C19.3626 7.909 19.6056 7.846 19.7916 7.702C19.9776 7.558 20.1336 7.327 20.2596 7.009L20.3046 6.919L18.3966 2.5H19.4586L20.7996 5.767ZM26.8163 7H25.8443V0.43H26.8163V7ZM32.2919 5.164H28.7099C28.7819 5.5 28.9439 5.761 29.1959 5.947C29.4539 6.133 29.7719 6.226 30.1499 6.226C30.6599 6.226 31.0469 6.04 31.3109 5.668L32.1119 6.136C31.6739 6.79 31.0169 7.117 30.1409 7.117C29.4149 7.117 28.8239 6.895 28.3679 6.451C27.9179 6.001 27.6929 5.434 27.6929 4.75C27.6929 4.084 27.9149 3.523 28.3589 3.067C28.7969 2.611 29.3669 2.383 30.0689 2.383C30.7229 2.383 31.2629 2.614 31.6889 3.076C32.1149 3.538 32.3279 4.099 32.3279 4.759C32.3279 4.879 32.3159 5.014 32.2919 5.164ZM28.7009 4.372H31.3469C31.2809 4.018 31.1309 3.745 30.8969 3.553C30.6689 3.361 30.3899 3.265 30.0599 3.265C29.6999 3.265 29.3999 3.364 29.1599 3.562C28.9199 3.76 28.7669 4.03 28.7009 4.372ZM35.4006 0.582999V1.519C34.6926 1.459 34.3386 1.756 34.3386 2.41V2.5H35.4006V3.436H34.3386V7H33.3666V3.436H32.6826V2.5H33.3666V2.41C33.3666 1.786 33.5406 1.315 33.8886 0.997C34.2366 0.679 34.7406 0.541 35.4006 0.582999ZM38.6385 2.5V3.436H37.5225V5.596C37.5225 5.782 37.5645 5.917 37.6485 6.001C37.7325 6.079 37.8555 6.124 38.0175 6.136C38.1855 6.142 38.3925 6.139 38.6385 6.127V7C37.8945 7.09 37.3605 7.027 37.0365 6.811C36.7125 6.589 36.5505 6.184 36.5505 5.596V3.436H35.7225V2.5H36.5505V1.528L37.5225 1.24V2.5H38.6385Z" fill="white"/>
</svg>
