<svg width="39" height="9" viewBox="0 0 39 9" fill="none" xmlns="http://www.w3.org/2000/svg">
<path d="M4.284 1.582L3.006 3.274C3.474 3.382 3.846 3.598 4.122 3.922C4.404 4.24 4.545 4.63 4.545 5.092C4.545 5.722 4.332 6.217 3.906 6.577C3.486 6.937 2.964 7.117 2.34 7.117C1.848 7.117 1.413 7.006 1.035 6.784C0.657 6.556 0.387 6.232 0.225 5.812L1.107 5.299C1.293 5.839 1.704 6.109 2.34 6.109C2.7 6.109 2.985 6.019 3.195 5.839C3.405 5.653 3.51 5.404 3.51 5.092C3.51 4.78 3.405 4.534 3.195 4.354C2.985 4.174 2.7 4.084 2.34 4.084H2.106L1.692 3.463L3.051 1.672H0.414V0.7H4.284V1.582ZM11.2414 3.139V0.7H12.2134V7H11.2414V6.352C10.8754 6.862 10.3504 7.117 9.66635 7.117C9.04835 7.117 8.52035 6.889 8.08235 6.433C7.64435 5.977 7.42535 5.416 7.42535 4.75C7.42535 4.084 7.64435 3.523 8.08235 3.067C8.52035 2.611 9.04835 2.383 9.66635 2.383C10.3504 2.383 10.8754 2.635 11.2414 3.139ZM8.80235 5.785C9.07235 6.055 9.41135 6.19 9.81935 6.19C10.2274 6.19 10.5664 6.055 10.8364 5.785C11.1064 5.509 11.2414 5.164 11.2414 4.75C11.2414 4.336 11.1064 3.994 10.8364 3.724C10.5664 3.448 10.2274 3.31 9.81935 3.31C9.41135 3.31 9.07235 3.448 8.80235 3.724C8.53235 3.994 8.39735 4.336 8.39735 4.75C8.39735 5.158 8.53235 5.503 8.80235 5.785ZM16.9103 3.139V2.5H17.8823V7H16.9103V6.352C16.5443 6.862 16.0193 7.117 15.3353 7.117C14.7173 7.117 14.1893 6.889 13.7513 6.433C13.3133 5.977 13.0943 5.416 13.0943 4.75C13.0943 4.084 13.3133 3.523 13.7513 3.067C14.1893 2.611 14.7173 2.383 15.3353 2.383C16.0193 2.383 16.5443 2.635 16.9103 3.139ZM14.4713 5.785C14.7413 6.055 15.0803 6.19 15.4883 6.19C15.8963 6.19 16.2353 6.055 16.5053 5.785C16.7753 5.509 16.9103 5.164 16.9103 4.75C16.9103 4.336 16.7753 3.994 16.5053 3.724C16.2353 3.448 15.8963 3.31 15.4883 3.31C15.0803 3.31 14.7413 3.448 14.4713 3.724C14.2013 3.994 14.0663 4.336 14.0663 4.75C14.0663 5.158 14.2013 5.503 14.4713 5.785ZM20.8962 5.767L22.0482 2.5H23.0832L21.3552 7.144C20.9232 8.308 20.1912 8.86 19.1592 8.8V7.891C19.4592 7.909 19.7022 7.846 19.8882 7.702C20.0742 7.558 20.2302 7.327 20.3562 7.009L20.4012 6.919L18.4932 2.5H19.5552L20.8962 5.767ZM26.913 7H25.941V0.43H26.913V7ZM32.3886 5.164H28.8066C28.8786 5.5 29.0406 5.761 29.2926 5.947C29.5506 6.133 29.8686 6.226 30.2466 6.226C30.7566 6.226 31.1436 6.04 31.4076 5.668L32.2086 6.136C31.7706 6.79 31.1136 7.117 30.2376 7.117C29.5116 7.117 28.9206 6.895 28.4646 6.451C28.0146 6.001 27.7896 5.434 27.7896 4.75C27.7896 4.084 28.0116 3.523 28.4556 3.067C28.8936 2.611 29.4636 2.383 30.1656 2.383C30.8196 2.383 31.3596 2.614 31.7856 3.076C32.2116 3.538 32.4246 4.099 32.4246 4.759C32.4246 4.879 32.4126 5.014 32.3886 5.164ZM28.7976 4.372H31.4436C31.3776 4.018 31.2276 3.745 30.9936 3.553C30.7656 3.361 30.4866 3.265 30.1566 3.265C29.7966 3.265 29.4966 3.364 29.2566 3.562C29.0166 3.76 28.8636 4.03 28.7976 4.372ZM35.4973 0.582999V1.519C34.7893 1.459 34.4353 1.756 34.4353 2.41V2.5H35.4973V3.436H34.4353V7H33.4633V3.436H32.7793V2.5H33.4633V2.41C33.4633 1.786 33.6373 1.315 33.9853 0.997C34.3333 0.679 34.8373 0.541 35.4973 0.582999ZM38.7352 2.5V3.436H37.6192V5.596C37.6192 5.782 37.6612 5.917 37.7452 6.001C37.8292 6.079 37.9522 6.124 38.1142 6.136C38.2822 6.142 38.4892 6.139 38.7352 6.127V7C37.9912 7.09 37.4572 7.027 37.1332 6.811C36.8092 6.589 36.6472 6.184 36.6472 5.596V3.436H35.8192V2.5H36.6472V1.528L37.6192 1.24V2.5H38.7352Z" fill="#D3D1E0"/>
</svg>
