<svg width="60" height="19" viewBox="0 0 60 19" fill="none" xmlns="http://www.w3.org/2000/svg">
<g filter="url(#filter0_b_1_2417)">
<rect width="59.8148" height="19" rx="9.5" fill="#201E43"/>
</g>
<path d="M12.284 5.582L11.006 7.274C11.474 7.382 11.846 7.598 12.122 7.922C12.404 8.24 12.545 8.63 12.545 9.092C12.545 9.722 12.332 10.217 11.906 10.577C11.486 10.937 10.964 11.117 10.34 11.117C9.848 11.117 9.413 11.006 9.035 10.784C8.657 10.556 8.387 10.232 8.225 9.812L9.107 9.299C9.293 9.839 9.704 10.109 10.34 10.109C10.7 10.109 10.985 10.019 11.195 9.839C11.405 9.653 11.51 9.404 11.51 9.092C11.51 8.78 11.405 8.534 11.195 8.354C10.985 8.174 10.7 8.084 10.34 8.084H10.106L9.692 7.463L11.051 5.672H8.414V4.7H12.284V5.582ZM19.2414 7.139V4.7H20.2134V11H19.2414V10.352C18.8754 10.862 18.3504 11.117 17.6664 11.117C17.0484 11.117 16.5204 10.889 16.0824 10.433C15.6444 9.977 15.4254 9.416 15.4254 8.75C15.4254 8.084 15.6444 7.523 16.0824 7.067C16.5204 6.611 17.0484 6.383 17.6664 6.383C18.3504 6.383 18.8754 6.635 19.2414 7.139ZM16.8024 9.785C17.0724 10.055 17.4114 10.19 17.8194 10.19C18.2274 10.19 18.5664 10.055 18.8364 9.785C19.1064 9.509 19.2414 9.164 19.2414 8.75C19.2414 8.336 19.1064 7.994 18.8364 7.724C18.5664 7.448 18.2274 7.31 17.8194 7.31C17.4114 7.31 17.0724 7.448 16.8024 7.724C16.5324 7.994 16.3974 8.336 16.3974 8.75C16.3974 9.158 16.5324 9.503 16.8024 9.785ZM24.9103 7.139V6.5H25.8823V11H24.9103V10.352C24.5443 10.862 24.0193 11.117 23.3353 11.117C22.7173 11.117 22.1893 10.889 21.7513 10.433C21.3133 9.977 21.0943 9.416 21.0943 8.75C21.0943 8.084 21.3133 7.523 21.7513 7.067C22.1893 6.611 22.7173 6.383 23.3353 6.383C24.0193 6.383 24.5443 6.635 24.9103 7.139ZM22.4713 9.785C22.7413 10.055 23.0803 10.19 23.4883 10.19C23.8963 10.19 24.2353 10.055 24.5053 9.785C24.7753 9.509 24.9103 9.164 24.9103 8.75C24.9103 8.336 24.7753 7.994 24.5053 7.724C24.2353 7.448 23.8963 7.31 23.4883 7.31C23.0803 7.31 22.7413 7.448 22.4713 7.724C22.2013 7.994 22.0663 8.336 22.0663 8.75C22.0663 9.158 22.2013 9.503 22.4713 9.785ZM28.8962 9.767L30.0482 6.5H31.0832L29.3552 11.144C28.9232 12.308 28.1912 12.86 27.1592 12.8V11.891C27.4592 11.909 27.7022 11.846 27.8882 11.702C28.0742 11.558 28.2302 11.327 28.3562 11.009L28.4012 10.919L26.4932 6.5H27.5552L28.8962 9.767ZM34.913 11H33.941V4.43H34.913V11ZM40.3886 9.164H36.8066C36.8786 9.5 37.0406 9.761 37.2926 9.947C37.5506 10.133 37.8686 10.226 38.2466 10.226C38.7566 10.226 39.1436 10.04 39.4076 9.668L40.2086 10.136C39.7706 10.79 39.1136 11.117 38.2376 11.117C37.5116 11.117 36.9206 10.895 36.4646 10.451C36.0146 10.001 35.7896 9.434 35.7896 8.75C35.7896 8.084 36.0116 7.523 36.4556 7.067C36.8936 6.611 37.4636 6.383 38.1656 6.383C38.8196 6.383 39.3596 6.614 39.7856 7.076C40.2116 7.538 40.4246 8.099 40.4246 8.759C40.4246 8.879 40.4126 9.014 40.3886 9.164ZM36.7976 8.372H39.4436C39.3776 8.018 39.2276 7.745 38.9936 7.553C38.7656 7.361 38.4866 7.265 38.1566 7.265C37.7966 7.265 37.4966 7.364 37.2566 7.562C37.0166 7.76 36.8636 8.03 36.7976 8.372ZM43.4973 4.583V5.519C42.7893 5.459 42.4353 5.756 42.4353 6.41V6.5H43.4973V7.436H42.4353V11H41.4633V7.436H40.7793V6.5H41.4633V6.41C41.4633 5.786 41.6373 5.315 41.9853 4.997C42.3333 4.679 42.8373 4.541 43.4973 4.583ZM46.7352 6.5V7.436H45.6192V9.596C45.6192 9.782 45.6612 9.917 45.7452 10.001C45.8292 10.079 45.9522 10.124 46.1142 10.136C46.2822 10.142 46.4892 10.139 46.7352 10.127V11C45.9912 11.09 45.4572 11.027 45.1332 10.811C44.8092 10.589 44.6472 10.184 44.6472 9.596V7.436H43.8192V6.5H44.6472V5.528L45.6192 5.24V6.5H46.7352Z" fill="#D3D1E0"/>
<defs>
<filter id="filter0_b_1_2417" x="-7.11" y="-7.11" width="74.0348" height="33.22" filterUnits="userSpaceOnUse" color-interpolation-filters="sRGB">
<feFlood flood-opacity="0" result="BackgroundImageFix"/>
<feGaussianBlur in="BackgroundImageFix" stdDeviation="3.555"/>
<feComposite in2="SourceAlpha" operator="in" result="effect1_backgroundBlur_1_2417"/>
<feBlend mode="normal" in="SourceGraphic" in2="effect1_backgroundBlur_1_2417" result="shape"/>
</filter>
</defs>
</svg>
